<?xml version="1.0" encoding="UTF-8" standalone="no"?>
<svg
   xmlns:dc="http://purl.org/dc/elements/1.1/"
   xmlns:cc="http://creativecommons.org/ns#"
   xmlns:rdf="http://www.w3.org/1999/02/22-rdf-syntax-ns#"
   xmlns:svg="http://www.w3.org/2000/svg"
   xmlns="http://www.w3.org/2000/svg"
   xmlns:sodipodi="http://sodipodi.sourceforge.net/DTD/sodipodi-0.dtd"
   xmlns:inkscape="http://www.inkscape.org/namespaces/inkscape"
   version="1.1"
   width="612"
   height="792"
   id="svg31"
   viewBox="0 0 612 792"
   sodipodi:docname="grafika.cdr">
  <metadata
     id="metadata37">
    <rdf:RDF>
      <cc:Work
         rdf:about="">
        <dc:format>image/svg+xml</dc:format>
        <dc:type
           rdf:resource="http://purl.org/dc/dcmitype/StillImage" />
      </cc:Work>
    </rdf:RDF>
  </metadata>
  <defs
     id="defs35" />
  <sodipodi:namedview
     pagecolor="#ffffff"
     bordercolor="#666666"
     borderopacity="1"
     objecttolerance="10"
     gridtolerance="10"
     guidetolerance="10"
     inkscape:pageopacity="0"
     inkscape:pageshadow="2"
     inkscape:window-width="640"
     inkscape:window-height="480"
     id="namedview33" />
  <path
     d="M 154.8214,162.3212 V 502.4786 H 494.9786 V 162.3212 Z"
     style="fill:none;stroke:#1b1918;stroke-width:0.216;stroke-linecap:butt;stroke-linejoin:miter;stroke-dasharray:none"
     id="path2" />
  <g
     id="Layer1000">
    <path
       d="m 252.9428,250.5976 c -0.1748,0.1061 0.17,0.3457 0.1527,0.7621 -0.008,0.2027 -0.0673,0.5514 -0.1211,1.0222 -0.0537,0.4709 -0.0807,0.8475 -0.0807,1.1033 0.9954,1.4528 1.8832,2.3406 2.6366,2.6769 2.0045,0.9012 4.1567,1.6144 6.4705,2.139 6.8339,1.1838 11.9726,1.9775 15.403,2.3943 1.6411,0.2423 3.215,0.3231 4.7351,0.2423 1.5739,-0.0807 3.982,-0.3095 7.2105,-0.6726 l 0.2825,0.269 c 1.1031,-0.4978 2.0043,-0.8341 2.7174,-0.9819 1.2376,-0.3229 2.3676,-1.0898 3.3899,-2.3139 1.0225,-1.2107 1.5873,-2.4753 1.6951,-3.7531 -1.036,-6.3093 -1.5471,-11.596 -1.5471,-15.847 0,-1.3316 0.0538,-2.5827 0.1615,-3.7397 -0.0807,-0.6054 0,-1.8564 0.2421,-3.7396 0.0538,-0.5114 0.0808,-0.9955 0.0808,-1.4664 0,-1.157 -0.2153,-2.0582 -0.6324,-2.7174 0.1345,0 0.4978,-0.121 1.1032,-0.3498 0.2823,-0.1345 0.5784,-0.2018 0.861,-0.2018 0.215,0 0.4168,0.054 0.6321,0.1615 6.067,-1.5201 11.3403,-4.8159 15.8066,-9.8606 0.7667,-1.4123 1.4123,-2.6366 1.9639,-3.6589 1.3453,-2.4483 1.843,-4.7218 1.5066,-6.8203 -0.8744,-5.206 -3.511,-9.4973 -7.9098,-12.8874 -4.3989,-3.39 -9.7934,-4.7083 -16.1697,-3.9414 -3.3363,0.3901 -6.6186,1.1568 -9.8203,2.2868 -0.6592,-1.2913 -1.4931,-2.4214 -2.5156,-3.3901 -1.4259,-1.3451 -3.2285,-2.5828 -5.4078,-3.7396 -1.103,-0.5517 -3.1075,-1.4664 -6.0265,-2.7309 -1.2645,-0.3094 -2.2332,-0.4977 -2.9192,-0.5514 -1.5738,-0.2018 -3.1882,-0.3096 -4.8429,-0.3096 -6.6453,0 -12.4029,1.4396 -17.2593,4.3318 -5.2328,5.3135 -7.8964,11.663 -8.004,19.0753 -0.027,2.7039 0.6322,5.233 1.964,7.5736 1.2913,2.2333 3.0805,4.4258 5.3675,6.5783 1.2644,1.1838 3.4436,2.9997 6.5378,5.4346 -0.5246,3.9416 -0.9282,9.2014 -1.2242,15.7662 l -0.3901,9.4973 1.3048,1.7757 c 0.3633,0.296 0.7804,0.458 1.2645,0.4708 0.47,0.0126 0.9257,0.2934 1.2783,-0.0199 l 1.7485,-1.5539 c 0.027,-2.8922 0.2423,-6.7934 0.6324,-11.7036 0.3631,-5.0177 0.5514,-9.0399 0.5514,-12.0534 -0.3631,-0.4303 -0.6322,-0.7667 -0.7937,-1.0357 0.0807,-0.5514 0.1885,-0.982 0.323,-1.2913 -0.4708,-0.1346 -0.8477,-0.5517 -1.1032,-1.2646 -0.7667,-1.8967 -1.2778,-2.8922 -1.5336,-2.9999 -0.3766,-0.1211 -0.9415,0.1615 -1.7085,0.8744 -6.309,-4.1297 -9.4567,-8.9591 -9.4567,-14.5015 0,-2.6906 0.6994,-5.7038 2.085,-9.0669 2.139,-5.2868 5.3675,-8.3672 9.699,-9.2687 1.0493,-0.4169 2.1658,-0.7399 3.3496,-0.982 1.5741,-0.3093 3.4573,-0.5111 5.6366,-0.5919 1.9237,-0.0537 3.8204,-0.0942 5.7171,-0.121 4.6546,0.5784 9.2822,2.5964 13.8696,6.0399 -5.2735,2.3543 -9.1747,4.2376 -11.7036,5.6366 0.3229,0.6995 0.6457,1.0628 0.9955,1.0628 l 4.1298,-1.5066 c 2.3138,-0.8072 4.1972,-1.4529 5.6366,-1.9237 3.4168,-1.0763 6.4032,-1.7084 8.9456,-1.8967 1.7084,-0.3096 3.3766,-0.4709 5.0044,-0.4709 6.0535,0 11.1787,1.9102 15.4162,5.7171 2.018,2.3676 2.9057,4.2645 2.6367,5.7174 -1.076,2.9594 -2.0043,5.1522 -2.798,6.5378 -0.7399,0.5784 -1.278,1.1165 -1.6143,1.6141 -5.233,6.094 -13.2237,9.1477 -23.999,9.1477 -1.7622,0 -3.5916,-0.0807 -5.4751,-0.2423 0.3363,1.2378 0.5651,2.2198 0.6592,2.9597 1.1032,1.5469 2.7579,2.5559 4.9774,3.0402 0.9955,0.2286 1.9775,0.3496 2.946,0.3496 1.1838,0 2.3273,-0.1613 3.4303,-0.4708 l 0.6727,0.2288 c -0.6322,3.9414 -0.955,7.7216 -0.955,11.3134 0,4.6814 0.5246,9.0667 1.5873,13.1697 -0.2423,1.0493 -0.7669,1.8297 -1.5741,2.3273 -2.6634,0.9685 -4.6813,1.5604 -6.0802,1.7622 -1.7489,0.1883 -3.5111,0.2825 -5.2735,0.2825 -2.0447,0 -4.103,-0.121 -6.1477,-0.3498 -3.8607,-0.5111 -8.2327,-1.3586 -13.1294,-2.5694 0.6324,-0.3363 1.5739,-0.9819 2.8384,-1.9237 1.1838,-0.9282 2.139,-1.5603 2.879,-1.8967 0.4438,-0.4171 1.0087,-0.7937 1.6949,-1.103 1.8967,-0.7129 3.3228,-1.1973 4.2912,-1.4663 1.5874,-0.2288 3.1883,-0.3499 4.8159,-0.3499 1.6277,0 3.2711,0.1069 4.9237,0.3499 3.2844,0.4832 6.1745,2.2497 8.6766,3.7966 0.2826,-0.0806 0.4162,-0.9717 0.3901,-1.2273 -0.0275,-0.2688 -0.1345,-0.5246 -0.3228,-0.7937 -1.3048,-1.8832 -2.8385,-3.484 -4.5604,-4.8024 -3.5513,-2.6231 -7.56,-4.0627 -12.0263,-4.3317 -2.2061,-0.1346 -4.3989,0.0942 -6.5781,0.6726 -6.2285,1.6279 -10.0759,4.6009 -11.5555,8.9324 0,1.009 0.121,1.8159 0.363,2.4483 l -0.7531,-0.121 c -0.7942,-0.1277 -1.7551,-0.2867 -2.2782,0.0316 z"
       style="fill:#1b1918;fill-rule:evenodd"
       id="path4" />
    <path
       d="m 286.8492,246.889 -1.3894,20.1137 c -0.7405,10.7211 -6.2804,17.6918 -10.8582,21.8276 -3.8406,3.4699 -9.012,5.2076 -15.5121,5.2076 -4.3581,0 -8.4947,-1.4035 -12.4095,-4.2105 -3.9151,-2.807 -6.722,-6.2785 -8.4209,-10.4152 l 12.1879,-18.5035 c 0.3694,2.1421 1.219,4.0257 2.5484,5.6508 1.4773,1.9205 3.2502,2.8807 5.3185,2.8807 5.0229,0 7.6085,-3.7352 7.3129,-11.1907 -0.1271,-3.2086 -0.2551,-8.2974 -0.3823,-11.506 5.6391,-3.5851 14.5264,-3.5227 21.6047,0.1455 z"
       style="fill:#e30016;fill-rule:evenodd;stroke:#1b1918;stroke-width:2.519;stroke-linecap:butt;stroke-linejoin:miter;stroke-dasharray:none"
       id="path6" />
  </g>
  <path
     d="m 247.965,218.582 -14.7875,63.6649 -18.4863,10.5 -18.0061,-43.527 -1.8431,41.2583 -18.4317,-4.8203 -2.4103,-87.1956 30.0576,-5.8132 16.8721,46.788 11.9095,-48.4892 c 2.4531,0.6176 4.9064,1.2353 7.3597,1.8527 -2.2041,10.7641 -3.5832,19.3095 7.7661,25.7814 z"
     style="fill:#e30016;fill-rule:evenodd;stroke:#1b1918;stroke-width:2.5191;stroke-linecap:butt;stroke-linejoin:miter;stroke-dasharray:none"
     id="path9" />
  <path
     d="m 232.4047,424.1505 c -0.9,-0.2349 -2.2107,-0.8219 -3.8736,-1.7805 -1.2325,-2.8561 -1.839,-5.7904 -1.839,-8.7644 0,-4.8515 1.3498,-9.8597 4.0692,-15.0243 1.8976,-3.6191 4.3235,-7.6102 7.2578,-11.9726 0.8804,-2.8565 1.3306,-4.8322 1.3306,-5.9083 -0.0392,-0.8411 -0.372,-1.7019 -0.9782,-2.5626 -3.0128,-3.0325 -4.5191,-5.4777 -4.5191,-7.3364 0,-0.5087 0.0389,-1.0171 0.1564,-1.5651 0.4305,-0.3324 0.8607,-0.4695 1.3302,-0.3913 0.5673,0.3523 1.4674,0.7826 2.6801,1.3109 3.9129,3.3257 6.2603,6.5731 7.0625,9.7423 0.8412,3.3649 0.6652,6.7298 -0.5283,10.0947 -0.763,2.1324 -2.3671,5.1649 -4.8126,9.0579 -2.5041,4.0103 -4.2646,7.0428 -5.2624,9.1164 -1.1739,2.367 -1.6823,4.8711 -1.4867,7.5513 0.1957,1.4087 0.352,3.4627 0.5084,6.1431 0,-0.4501 1.1739,-2.4259 1.2521,-2.9932 1.4673,-0.4502 3.2085,-0.6847 5.2821,-0.6847 2.7779,0 6.1428,0.4302 10.0946,1.2716 0.6066,0.3717 0.9782,0.5281 1.1346,0.4499 10.2903,-12.4228 24.1411,-18.9958 41.5525,-19.7198 5.7712,3.4041 9.5663,6.6908 11.4053,9.86 0.0392,0.4695 0.0589,0.939 0.0589,1.4281 0,1.115 -0.3913,1.8194 -1.1935,2.1321 -1.9565,0.7633 -4.4213,1.5066 -7.3949,2.2303 l -9.1754,2.2303 c -6.8468,1.6826 -12.0507,3.9715 -15.6505,6.8862 -4.7248,2.8192 -9.0243,7.47 -11.1118,10.4859 -0.5527,0.7982 -0.939,1.7804 -1.2128,2.915 4.969,-0.9782 9.3317,-3.0714 13.0682,-6.2406 -0.4891,-0.6455 -5.8314,-2.4536 -4.6951,-3.8414 1.3752,-1.6803 4.6825,-2.7713 4.0759,-3.3189 1.0371,0.2934 2.2819,1.0174 4.0034,2.1128 2.7587,3.0521 4.1279,5.6733 4.1279,7.8644 -0.6063,0.4891 -0.9194,0.9782 -0.9194,1.4869 0,0.2935 0.5088,1.4085 1.5455,3.3256 0.5088,0.9783 0.4499,1.8979 -0.176,2.7391 -6.4952,9.0186 -12.3053,20.3457 -17.4699,33.9812 0.2346,0.3131 0.3324,0.6066 0.3324,0.8608 0,0.5087 -0.3324,0.9586 -0.9975,1.3499 -0.6655,0.4109 -1.487,0.9782 -2.4848,1.7019 -1.0757,1.2913 -3.2278,2.3281 -6.4753,3.091 -1.7997,0.4109 -2.9346,0.724 -3.3845,0.9197 l -9.8597,1.3692 c -3.2085,0.4501 -6.2996,0.7436 -9.2928,0.8607 -3.0125,0.0786 -5.9861,-0.2149 -8.9401,-0.8607 -5.693,-0.4106 -9.7426,-0.8608 -12.1489,-1.3107 -4.5388,-0.8022 -8.3731,-2.1713 -11.4642,-4.0692 -1.1346,-1.3499 -1.8386,-2.1714 -2.0539,-2.4649 -0.6848,-0.9586 -1.1346,-1.9368 -1.3303,-2.9343 0,-1.135 0.5281,-1.839 1.5456,-2.1128 7.1207,1.604 14.0854,2.5041 20.9326,2.6994 6.8276,0.1567 14.5352,-0.1564 23.0844,-0.9193 2.6801,-0.5674 6.6123,-1.6823 11.8162,-3.3257 1.4869,-0.6458 2.9736,-1.6629 4.4802,-3.0325 4.382,-8.8622 8.7055,-16.9808 12.9508,-24.3171 -0.1175,-0.2149 -0.3131,-0.3324 -0.587,-0.3324 -1.252,0 -1.7411,0.0782 -1.428,0.2346 -2.7587,1.252 -6.0843,2.0739 -10.0361,2.4652 -1.2128,0.0978 -3.2867,0.2542 -6.1818,0.4498 -6.8865,0.4499 -13.8901,0.6262 -21.0305,0.5088 -14.6137,-0.1957 -28.5624,-1.6434 -41.9045,-4.3432 -1.6826,-0.2349 -4.1867,-0.7236 -7.5123,-1.4477 -1.1543,-0.2934 -2.191,-0.7629 -3.1496,-1.3695 -0.2739,-0.1563 -0.5673,0.1175 -0.9197,0.8022 0.6066,2.954 2.4652,7.7277 5.5562,14.34 1.6041,3.3842 2.7584,6.1232 3.4431,8.1968 0.3128,0.8414 1.3692,3.2477 3.1496,7.2188 1.3107,2.9347 2.1129,5.4192 2.426,7.4538 0.4891,0.4888 0.6847,0.8801 0.5673,1.1932 -0.5673,0.352 -1.2132,0.5087 -1.8979,0.5087 -0.4888,-0.0196 -2.054,-0.3716 -4.6952,-1.0175 -1.3498,-2.2888 -3.0714,-5.9664 -5.2231,-11.0139 l -1.9368,-4.5777 c -1.7998,-3.4824 -4.3039,-8.7841 -7.5124,-15.944 -0.9586,-2.4845 -1.5844,-5.0083 -1.8975,-7.5517 -0.3131,-1.7997 -0.5088,-4.558 -0.6262,-8.2556 0.0785,-1.1543 0.6065,-2.2692 1.6044,-3.3256 0.1956,-1.6827 1.4866,-3.3649 3.8929,-5.0475 1.1935,-0.8412 1.9954,-1.4281 2.4063,-1.7801 7.532,-3.7758 18.6241,-6.2407 33.2576,-7.3949 0.4498,-4.2842 2.8954,-9.7816 7.336,-16.5114 4.3234,-6.5733 6.769,-11.9336 7.3363,-16.1004 -0.0389,-1.4869 -1.3106,-3.3648 -3.7951,-5.6148 -1.839,-1.6433 -2.739,-3.0714 -2.739,-4.3038 0,-0.5284 0.0782,-1.1346 0.2738,-1.8194 0.4695,-0.3523 1.0175,-0.4891 1.663,-0.4109 0.6065,0.0782 1.9172,0.587 3.8929,1.5455 3.3063,2.6802 5.517,5.8494 6.6516,9.5078 0.2738,1.3888 0.4109,2.6997 0.4109,3.9714 0,2.4063 -0.4498,4.5973 -1.3695,6.5927 -0.7041,1.5652 -3.0322,5.6341 -7.0036,12.2075 -3.0129,5.0082 -4.9104,9.1946 -5.6734,12.5987 -0.2345,0.9194 -0.352,1.878 -0.352,2.8758 0,2.778 0.8411,5.7712 2.5238,8.9404 0.5084,0.8412 1.0757,2.1322 1.7215,3.893 0.2346,1.4869 -0.6066,2.3477 -2.5238,2.5823 -0.7629,0.1174 -1.3498,0 -1.7804,-0.3521 -1.1735,-0.9585 -2.3085,-3.443 -3.3649,-7.4534 -0.4695,-1.6044 -1.0953,-2.8761 -1.8975,-3.8347 0.0782,-0.528 -0.1368,-0.9975 -0.6259,-1.3692 -1.9564,0.6062 -4.6758,1.0761 -8.1385,1.4281 -4.0493,0.4498 -6.808,0.8411 -8.2557,1.1542 -1.8779,0.5281 -4.6755,1.2717 -8.3728,2.2303 -1.6044,0.6844 -3.8932,1.9172 -6.8865,3.6584 -0.8997,0.7629 -1.5455,1.6822 -1.8779,2.7583 2.4452,1.3302 5.4385,2.4845 8.999,3.4431 6.1428,1.604 13.6748,2.8561 22.576,3.7758 7.9425,0.8018 16.6287,1.1346 26.019,0.9778 4.0497,-0.0389 9.1753,-0.1367 15.3571,-0.2931 0.5869,0.0389 1.4477,-0.0589 2.5823,-0.2935 -0.1564,-0.4891 -0.2346,-0.9782 -0.2346,-1.4869 0,-1.1739 0.8022,-2.9344 2.4063,-5.2625 0.9976,-1.4869 1.6041,-2.5237 1.839,-3.091 5.2039,-7.6102 15.1418,-13.5181 29.8142,-17.7241 2.2891,-0.4109 5.6148,-1.311 9.9579,-2.6805 -0.1371,-0.7629 -0.9979,-1.5063 -2.563,-2.2299 -12.4617,0 -23.0259,4.5384 -31.7121,13.6355 0.0786,0.3324 -0.1367,0.6259 -0.6844,0.8608 -0.5284,0.2153 -0.8415,0.4302 -0.9197,0.6258 -1.4866,1.3696 -3.4038,3.678 -5.7711,6.9255 -0.587,0.3913 -1.3692,1.2717 -2.3867,2.6412 -1.0171,1.3888 -1.8194,2.2888 -2.4452,2.7583 -0.372,0.2738 -0.8219,0.3913 -1.311,0.3913 -0.4891,0 -1.076,-0.1175 -1.7215,-0.3913 -1.3303,-0.763 -2.1518,-2.367 -2.4649,-4.8126 0.6848,-0.6848 1.6041,-1.8586 2.7584,-3.502 0.1956,-0.352 0.2738,-0.6844 0.2738,-1.0368 0,-0.2149 -0.0196,-0.4302 -0.0978,-0.6258 -0.8019,-0.4502 -2.4063,-0.7044 -4.8126,-0.7433 -2.5234,0 -4.1758,-0.8502 -5.2821,-0.7437 -1.6477,0.1584 -2.748,0.6974 -3.5016,0.9197 z"
     style="fill:#e30016;fill-rule:evenodd;stroke:#1b1918;stroke-width:0.216;stroke-linecap:butt;stroke-linejoin:miter;stroke-dasharray:none"
     id="path11" />
  <path
     d="m 387.5193,229.2004 c 0,2.4295 0.692,5.1208 2.0759,8.104 1.4916,3.2142 2.2914,5.3364 2.3837,6.3512 -0.4459,0.2767 -0.9073,0.3999 -1.3995,0.3999 -0.6921,0 -1.3379,-0.2153 -1.9376,-0.6766 -1.9375,-1.461 -3.6447,-3.737 -5.0748,-6.7971 -1.4456,-3.0604 -2.1682,-5.8438 -2.1682,-8.335 0,-4.1676 1.6762,-8.7807 5.0439,-13.825 3.6601,-5.5359 7.4583,-8.2887 11.3951,-8.2887 1.7378,0 2.6142,0.7075 2.6142,2.1531 0,0.4151 -1.1071,1.63 -3.3368,3.6138 -2.7682,2.4604 -4.8441,4.7209 -6.2589,6.7971 -2.2299,3.3371 -3.337,6.8277 -3.337,10.5033 z"
     style="fill:#e30016;fill-rule:evenodd;stroke:#1b1918;stroke-width:0.216;stroke-linecap:butt;stroke-linejoin:miter;stroke-dasharray:none"
     id="path13" />
  <path
     d="m 444.372,239.6882 c 0.0614,0.5997 0.0923,1.184 0.0923,1.7529 0,2.3223 -0.5846,4.429 -1.7532,6.3511 -1.3226,2.1377 -3.2756,4.8136 -5.8592,8.0275 -2.9372,3.7215 -5.1208,6.059 -6.5355,7.0278 -2.4604,1.6454 -6.9049,3.4754 -13.333,5.4438 -1.5839,0.6152 -3.1678,1.2149 -4.7363,1.8147 -2.0914,0.7689 -3.6599,1.1685 -4.675,1.1685 -1.4761,0 -2.7834,-0.3227 -3.9213,-0.9533 -1.3533,-0.7535 -2.076,-1.8146 -2.1683,-3.1987 l 0.5383,-0.5843 c 3.1064,-0.3536 7.1507,-1.5531 12.1641,-3.5984 1.7529,-0.5997 4.2441,-1.6148 7.4889,-3.0141 1.0765,-0.6151 2.9066,-2.2299 5.4901,-4.875 5.8281,-5.9204 9.3653,-11.9794 10.5953,-18.1922 l 0.446,-0.046 c 0.9381,-0.0615 1.9992,0.323 3.1987,1.1685 1.4456,0.9843 2.4298,1.5534 2.9681,1.7072 z"
     style="fill:#e30016;fill-rule:evenodd;stroke:#1b1918;stroke-width:0.216;stroke-linecap:butt;stroke-linejoin:miter;stroke-dasharray:none"
     id="path15" />
  <path
     d="m 446.4942,234.4596 -0.5846,0.046 c -0.9379,0.0923 -2.1528,-0.3845 -3.6598,-1.4456 l -1.0303,-1.6608 c 0,-1.2301 0,-2.4144 0,-3.5521 0,-3.7524 -0.2307,-6.6127 -0.6769,-8.5657 -0.7535,-3.1218 -2.2297,-5.4439 -4.4594,-6.9818 l -0.2615,-0.7226 c -2.8449,-2.4604 -5.7975,-4.598 -8.8579,-6.3972 -1.2609,-0.7229 -4.3979,-2.0762 -9.4112,-4.0598 -4.8902,-1.9532 -9.1037,-2.922 -12.6409,-2.922 -9.688,0 -17.1772,3.3831 -22.4981,10.1342 -4.8287,6.1665 -7.2431,14.194 -7.2431,24.1129 0,5.7821 0.3539,9.9033 1.0457,12.3331 0.8921,3.2447 2.968,7.566 6.2128,12.979 2.0762,3.5063 4.7364,6.5664 7.9811,9.15 1.1074,0.8919 2.5682,1.5071 4.3676,1.8455 1.5531,0.2922 3.1216,0.5843 4.6749,0.8458 -1.015,0.2153 -2.0453,0.3228 -3.1064,0.3228 -7.1661,0 -13.9172,-4.5057 -20.2221,-13.5173 -3.5217,-4.9825 -5.7208,-10.2417 -6.6281,-15.7779 -0.6918,-4.1367 -1.0303,-7.7659 -1.0303,-10.9029 0,-6.4435 0.8765,-11.8105 2.6605,-16.0855 2.4913,-6.0899 6.7202,-11.103 12.7023,-15.0243 5.9819,-3.9214 12.3025,-5.8744 18.961,-5.8744 8.3504,0 18.1616,3.3216 29.4184,9.965 l 0.369,-0.0924 c 5.736,4.1982 9.6883,7.9658 11.8411,11.2568 2.768,4.1521 4.1521,9.3804 4.1521,15.6856 0,2.3066 -0.6921,3.9522 -2.0759,4.9056 z"
     style="fill:#e30016;fill-rule:evenodd;stroke:#1b1918;stroke-width:0.216;stroke-linecap:butt;stroke-linejoin:miter;stroke-dasharray:none"
     id="path17" />
  <path
     d="m 470.2937,240.5097 c 0.1384,2.0144 0.4363,3.8994 0.4363,5.9447 0,4.8596 -0.5997,13.1943 -1.7992,25.0048 -0.4462,0.2307 -0.9382,0.3536 -1.4456,0.3536 -0.6614,0 -1.6917,-0.2767 -3.1064,-0.815 0.0615,-1.6148 0.046,-3.7676 -0.0463,-6.4435 -0.1229,-3.2139 -0.1844,-5.3361 -0.1844,-6.3972 0,-1.3224 0.1538,-2.7834 0.4614,-4.4133 l -0.4614,-0.3999 c 0.0615,-0.6612 0.2613,-2.4453 0.6152,-5.367 0.2767,-2.2145 0.4151,-4.0292 0.4151,-5.3978 0,-0.9379 -0.4206,-3.4635 -1.4762,-3.8291 -0.1232,0 -0.2922,-0.046 -0.5383,-0.1384 -0.2461,-0.0923 -0.4305,-0.1383 -0.5843,-0.1383 -1.8146,0 -3.0141,0.6303 -3.614,1.8915 -0.0615,1.4456 -0.2459,4.8902 -0.5381,10.3646 -0.2461,4.229 -0.369,7.6738 -0.369,10.3189 0,5.0748 0.3382,9.7649 0.9994,14.1016 2.1836,1.138 4.7672,1.7069 7.7507,1.7069 2.6756,0 5.1977,-0.4766 7.5658,-1.4453 1.507,-1.4611 2.2606,-3.2911 2.2606,-5.4439 0,-2.0147 0.0154,-3.045 0.0462,-3.0604 -0.2615,-1.8146 -0.3999,-3.5215 -0.3999,-5.1363 0,-1.6608 0.1232,-4.1366 0.3845,-7.4122 0.2461,-3.2908 0.3691,-5.7821 0.3691,-7.4583 0,-2.8295 -0.0461,-4.6135 -0.1384,-5.367 -0.323,-2.3989 -1.138,-3.7522 -2.4298,-4.0598 0.646,-0.8612 1.1689,-1.4761 1.584,-1.8454 0.1537,-1.0763 0.2306,-2.2452 0.2306,-3.5061 0,-0.9996 -0.0923,-2.4452 -0.2612,-4.3519 -0.1847,-1.9069 -0.277,-3.3371 -0.277,-4.3059 0,-0.7998 0.0463,-2.0453 0.1538,-3.6909 0.1077,-1.6454 0.1538,-2.8909 0.1538,-3.7368 0,-6.6124 -0.815,-15.4548 -2.4298,-26.5426 -0.1844,-1.1686 -1.307,-2.1683 -3.3831,-3.0141 -0.8459,0.5691 -1.4456,1.0459 -1.7992,1.4456 -4.6289,4.921 -7.3814,11.6721 -8.2427,20.2221 -0.5689,5.5976 -0.861,9.842 -0.861,12.7486 0,0.5997 0.0614,1.5222 0.1844,2.7371 0.1231,1.2149 0.1846,2.1376 0.1846,2.7682 0,2.9678 0.0769,4.9825 0.2307,6.0282 0.3536,2.1376 1.1994,3.9368 2.5064,5.413 0.8458,0.1232 1.3227,0.2001 1.4456,0.2307 l 0.3076,0.4459 0.7689,1.4456 0.2767,-0.0923 4.8371,0.4511 -1.2384,-8.3862 h -0.2616 c -0.492,-0.6612 -1.0765,-2.5682 -1.7683,-5.7206 -0.6921,-2.9987 -1.0305,-4.9979 -1.0305,-5.9973 0,-0.1386 0.0615,-0.3693 0.1846,-0.6615 0.1075,-0.3076 0.1693,-0.5382 0.1693,-0.6766 0,-0.2153 -0.1078,-0.3845 -0.3539,-0.5074 0.0923,-0.4153 0.0923,-0.9533 0,-1.6148 0,-0.9994 0,-1.5531 0,-1.6608 0,-0.5229 0.0615,-0.9534 0.1846,-1.307 -0.1231,-1.5687 -0.1846,-3.0604 -0.1846,-4.4596 0,-6.3821 1.0457,-11.8105 3.1373,-16.3162 1.0611,7.8119 1.5993,14.9166 1.5993,21.3141 0,6.1971 -0.5346,11.9041 -1.5742,17.1057 -0.0332,0.1674 1.3877,8.9076 1.3532,9.0742 z"
     style="fill:#e30016;fill-rule:evenodd;stroke:#1b1918;stroke-width:0.216;stroke-linecap:butt;stroke-linejoin:miter;stroke-dasharray:none"
     id="path19" />
  <path
     d="m 366.8818,205.1798 c 0,4.4442 -0.3999,7.9657 -1.2149,10.5338 0.2153,0.2153 0.323,0.446 0.323,0.6767 0,0.1846 -0.1383,0.4922 -0.3844,0.9073 -0.2616,0.4153 -0.3845,0.7381 -0.3845,0.9536 0,0.1383 0.0923,0.3382 0.2615,0.5843 -0.2615,0.0769 -0.4307,0.1998 -0.4922,0.3536 -0.0309,0.1232 -0.0154,0.3076 0.046,0.5382 0.0617,0.2462 0.0923,0.4306 0.0923,0.5383 -0.0614,0.1229 -0.1229,0.2922 -0.1843,0.5074 -0.1384,0.5691 -0.4308,1.4147 -0.8459,2.5682 -0.6306,1.3226 -3.5523,1.9684 -8.7501,1.9684 0.0615,0.2767 0.0923,0.5382 0.0923,0.7689 0,0.2767 -0.0923,0.8919 -0.2615,1.8455 -0.1538,0.7841 -0.1538,1.4147 0,1.8913 -0.9688,2.922 -1.2764,5.7514 -0.9533,8.5196 l -0.3539,0.5383 c 1.5533,0.1844 3.1527,1.1071 4.7672,2.7525 0.5383,0.5691 0.8919,1.6148 1.0457,3.1525 0.1386,1.9223 0.2921,3.0603 0.4459,3.4294 -0.3382,0.2307 -0.4765,0.7381 -0.4459,1.4762 0.0154,0.7535 -0.0921,1.2611 -0.3691,1.5379 0.0924,0.3844 0.1384,0.7226 0.1384,0.9842 0,0.4613 -0.0769,1.0917 -0.2307,1.9069 -0.1998,0.9534 -0.3227,1.5991 -0.3536,1.9221 l -0.6766,7.3969 c -0.1538,2.4297 -0.3076,4.875 -0.446,7.3353 -0.2152,2.8603 -0.6151,5.2593 -1.2303,7.2125 l -0.9842,0.7687 c -1.0457,-0.1844 -3.3216,-0.2767 -6.7971,-0.2767 -2.7065,0 -4.7824,-0.2153 -6.228,-0.6767 l -0.7229,-0.6306 c -0.6612,-5.013 -0.9842,-9.7034 -0.9842,-14.0861 0,-6.4896 0.7229,-12.3179 2.1685,-17.4848 1.953,1.1071 3.0295,2.5064 3.2448,4.1827 0.6766,5.8592 1.0302,11.7336 1.0302,17.6234 0.323,0.3227 0.4922,0.9993 0.4922,2.0298 0,0.5998 0.0769,0.9842 0.2307,1.1686 -0.0923,0.2461 -0.1386,0.4923 -0.1386,0.769 0,0.6306 0.2307,1.3072 0.6766,2.0298 0.3845,0.2001 0.8153,0.3076 1.2612,0.3076 0.3076,0 0.6152,-0.046 0.9533,-0.1383 0.0461,-3.1219 0.4154,-7.4738 1.0766,-13.056 0.7226,-6.0744 1.138,-10.4263 1.2609,-13.0714 -0.0615,-0.0923 -0.1384,-0.6612 -0.2307,-1.7068 -0.0923,-0.7844 -0.3382,-1.1689 -0.7689,-1.1689 -0.3228,0 -0.815,0.0769 -1.4762,0.2616 -0.6612,0.1843 -1.1689,0.2767 -1.5379,0.2767 -1.7069,0 -3.5061,-0.5689 -5.3976,-1.7223 0.1384,-1.0151 0.7996,-1.8455 1.9684,-2.4758 0.1538,-0.0924 1.2149,-0.4923 3.1679,-1.2149 -0.3999,-1.1074 -0.5997,-2.1685 -0.5997,-3.1988 0,-1.2917 0.3227,-3.2139 0.9687,-5.7668 0.6458,-2.5527 0.9534,-4.5057 0.938,-5.859 l -0.1384,-0.3536 c 0.2001,-0.2461 0.369,-0.4922 0.4922,-0.7689 -1.6762,-0.8459 -3.3831,-1.6763 -5.0902,-2.5221 -0.8459,-0.6921 -1.2609,-2.7526 -1.2609,-6.1666 0,-3.0755 0.861,-8.9193 2.5681,-17.531 0.5689,-0.6612 1.4301,-0.9996 2.5681,-0.9996 1.7378,0 2.6142,0.969 2.6142,2.8911 0,0.5074 -0.0923,1.2609 -0.2767,2.2451 -0.1847,0.9997 -0.2616,1.7532 -0.2616,2.2606 0,1.1689 -0.1844,2.9374 -0.5228,5.3209 -0.3536,2.3684 -0.5228,4.1521 -0.5228,5.3516 0,1.1688 0.0614,2.3837 0.1846,3.6138 0.4151,0.4459 0.815,0.7381 1.1686,0.8919 l 0.4923,0.0463 c 0.0306,-2.4607 0.4459,-5.3364 1.2148,-8.6426 0.6921,-2.8603 1.3993,-5.6898 2.1222,-8.5194 0.2459,-0.3382 0.5998,-0.492 1.0763,-0.492 0.5846,0 1.092,0.3227 1.5379,0.9688 0.446,0.6457 0.6766,1.2763 0.6766,1.9069 0,0.7535 -0.2461,1.8298 -0.7226,3.2293 -0.4768,1.3993 -0.7229,2.4604 -0.7229,3.2139 0,0.4768 -0.323,1.8147 -0.9842,4.0138 -0.6921,2.2759 -1.1995,3.6907 -1.5377,4.2289 l -1.7071,0.815 0.3536,0.4459 c 0.1847,-0.0614 1.1843,-0.046 3.0295,0.0463 1.138,0.0306 1.7226,-0.5691 1.7532,-1.7991 l -0.1844,-0.3539 c 1.5991,-4.8133 2.645,-10.0725 3.1524,-15.7779 0,-1.138 0.0924,-2.8294 0.2767,-5.09 0.0615,-0.323 0.1847,-0.5383 0.4,-0.6306 0.2152,-0.0923 0.4768,-0.1229 0.8149,-0.0923 0.5383,0.0614 0.815,0.0923 0.815,0.0923 0.1692,0 0.3845,-0.0615 0.6306,-0.1846 1.3993,0.6151 2.276,1.8609 2.6142,3.7524 0.1077,0.6303 0.1692,2.2605 0.1692,4.9056 z"
     style="fill:#e30016;fill-rule:evenodd;stroke:#1b1918;stroke-width:0.216;stroke-linecap:butt;stroke-linejoin:miter;stroke-dasharray:none"
     id="path21" />
  <text
     x="223.2065"
     y="481.0762"
     id="text25"><tspan
       font-family="'Balloon XBd BT'"
       font-size="75.5px"
       fill="#1b1918"
       id="tspan23">ormy</tspan></text>
  <text
     x="289.20129"
     y="472.43909"
     id="text29"><tspan
       font-family="'Balloon XBd BT'"
       font-size="88px"
       fill="#1b1918"
       id="tspan27">edál</tspan></text>
</svg>
